<svg width="167" height="156" viewBox="0 0 167 156" fill="none" xmlns="http://www.w3.org/2000/svg">
<path fill-rule="evenodd" clip-rule="evenodd" d="M133.174 0.019043H34.3711V11.4889H0.0175781V65.2894C0.0175781 86.082 23.209 103.192 45.9668 104.972C53.4379 112.982 66.5789 118.801 78.2747 121.282V135.344C67.0903 138.781 47.1119 146.858 45.9668 155.658H122.723C121.567 146.858 99.5539 138.77 88.3473 135.344V121.282C100.088 118.801 113.818 112.982 121.3 104.972C144.047 103.192 166.215 86.082 166.215 65.2894V11.4889H133.174V0.019043ZM10.5682 21.6794H33.5706V68.0262C33.5706 77.1709 35.9276 85.8707 40.0745 93.7027C22.8643 88.218 10.5682 74.0893 10.5682 57.5575V21.6794ZM100.666 78.2055L83.5 68.7382L66.3121 78.2055L69.5918 58.1805L55.6947 44.0073L74.8949 41.0814L83.5 22.8809L92.0828 41.0814L111.283 44.0073L97.3859 58.1805L100.666 78.2055ZM126.181 95.1823C130.35 86.9943 132.74 77.9385 132.74 68.3599V21.9798H155.798V57.424C155.798 74.7012 143.446 89.4529 126.181 95.1823Z" fill="#FFCB0F"/>
</svg>
