<svg width="11" height="20" viewBox="0 0 11 20" fill="none" xmlns="http://www.w3.org/2000/svg">
<path d="M8.59246 19.9171C8.38082 19.9179 8.17171 19.8711 7.98049 19.7804C7.78927 19.6897 7.6208 19.5573 7.48747 19.393L0.644967 10.893C0.436602 10.6395 0.322693 10.3215 0.322693 9.99339C0.322693 9.66525 0.436602 9.34729 0.644967 9.09381L7.7283 0.593805C7.96876 0.304498 8.3143 0.122564 8.68891 0.0880259C9.06351 0.0534879 9.43649 0.169176 9.7258 0.409639C10.0151 0.650102 10.197 0.995643 10.2316 1.37025C10.2661 1.74485 10.1504 2.11783 9.90996 2.40714L3.57747 10.0005L9.69746 17.5938C9.8707 17.8018 9.98074 18.055 10.0146 18.3235C10.0484 18.592 10.0046 18.8646 9.88836 19.109C9.77211 19.3535 9.58828 19.5595 9.35863 19.7027C9.12897 19.8459 8.8631 19.9203 8.59246 19.9171Z" fill="white"/>
</svg>
