<svg width="324" height="126" viewBox="0 0 324 126" fill="none" xmlns="http://www.w3.org/2000/svg">
<g clip-path="url(#clip0_936_820)">
<path d="M138.812 81.5536C136.773 82.5992 134.46 80.7667 134.872 78.4273L139.255 53.4484L120.651 35.7256C118.913 34.0674 119.816 31.0361 122.145 30.7087L148.011 27.0332L159.545 4.18255C160.585 2.12299 163.4 2.12299 164.44 4.18255L175.974 27.0332L201.84 30.7087C204.169 31.0361 205.072 34.0674 203.329 35.7256L184.73 53.4484L189.113 78.4273C189.525 80.7667 187.212 82.5992 185.173 81.5536L161.985 69.6398L138.806 81.5536H138.812Z" fill="#FFCB0F"/>
</g>
<g clip-path="url(#clip1_936_820)">
<path d="M209.229 100.368C207.374 101.159 205.457 99.4048 205.965 97.3761L211.38 75.7142L196.151 58.9845C194.729 57.4194 195.712 54.8139 197.778 54.6722L220.724 53.0647L232.284 33.7198C233.327 31.9762 235.799 32.1526 236.583 34.0264L245.281 54.8164L267.766 59.6647C269.791 60.0981 270.394 62.8167 268.759 64.1638L251.315 78.5629L253.6 100.774C253.815 102.854 251.669 104.319 249.944 103.273L230.326 91.3574L209.225 100.368L209.229 100.368Z" fill="#FFCB0F"/>
</g>
<g clip-path="url(#clip2_936_820)">
<path d="M266.788 115.254C265.214 115.743 263.802 114.158 264.383 112.551L270.578 95.3936L259.587 80.534C258.561 79.1441 259.576 77.1078 261.267 77.1639L280.05 77.7586L291.049 62.9932C292.041 61.6624 294.035 62.0106 294.518 63.5987L299.864 81.2172L317.738 87.0209C319.348 87.541 319.613 89.8007 318.173 90.7601L302.801 101.018L302.818 119.26C302.82 120.969 300.955 121.981 299.639 120.988L284.682 109.678L266.784 115.253L266.788 115.254Z" fill="#FFCB0F"/>
</g>
<g clip-path="url(#clip3_936_820)">
<path d="M114.341 100.368C116.197 101.159 118.113 99.4048 117.605 97.3761L112.191 75.7142L127.419 58.9845C128.841 57.4194 127.858 54.8139 125.793 54.6722L102.847 53.0647L91.2863 33.7198C90.2437 31.9762 87.7718 32.1526 86.9871 34.0264L78.2898 54.8164L55.8044 59.6647C53.7797 60.0981 53.1765 62.8167 54.8108 64.1638L72.2552 78.5629L69.9707 100.774C69.7555 102.854 71.9016 104.319 73.6263 103.273L93.2442 91.3574L114.346 100.368L114.341 100.368Z" fill="#FFCB0F"/>
</g>
<g clip-path="url(#clip4_936_820)">
<path d="M56.7816 115.254C58.3554 115.743 59.7677 114.158 59.1865 112.551L52.9911 95.3936L63.9824 80.534C65.0084 79.1441 63.9936 77.1078 62.3028 77.1639L43.5195 77.7586L32.5205 62.9932C31.5286 61.6624 29.534 62.0106 29.0516 63.5987L23.7052 81.2172L5.83107 87.0209C4.22131 87.541 3.95633 89.8007 5.39632 90.7601L20.768 101.018L20.7516 119.26C20.7491 120.969 22.6147 121.981 23.9299 120.988L38.8878 109.678L56.7853 115.253L56.7816 115.254Z" fill="#FFCB0F"/>
</g>
<defs>
<clipPath id="clip0_936_820">
<rect width="84.495" height="84.495" fill="white" transform="translate(119.734)"/>
</clipPath>
<clipPath id="clip1_936_820">
<rect width="74.3923" height="74.3923" fill="white" transform="translate(197.584 27.5527) rotate(4.08015)"/>
</clipPath>
<clipPath id="clip2_936_820">
<rect width="60.7786" height="60.7786" fill="white" transform="translate(263.356 55.1054) rotate(9.90116)"/>
</clipPath>
<clipPath id="clip3_936_820">
<rect width="74.3923" height="74.3923" fill="white" transform="matrix(-0.997465 0.0711519 0.0711519 0.997465 125.986 27.5527)"/>
</clipPath>
<clipPath id="clip4_936_820">
<rect width="60.7786" height="60.7786" fill="white" transform="matrix(-0.985106 0.171949 0.171949 0.985106 60.2129 55.1054)"/>
</clipPath>
</defs>
</svg>
