<svg width="16" height="16" viewBox="0 0 16 16" fill="none" xmlns="http://www.w3.org/2000/svg">
<path d="M10.5 0.999731C10.4998 0.835083 10.4531 0.673841 10.3653 0.534537C10.2775 0.395233 10.1522 0.28352 10.0038 0.212236C9.85541 0.140951 9.6899 0.112989 9.5263 0.131562C9.3627 0.150135 9.20766 0.21449 9.079 0.317231L4.94375 3.62473H0.875C0.642936 3.62473 0.420376 3.71692 0.256282 3.88101C0.0921874 4.04511 0 4.26767 0 4.49973V11.4997C0 11.7318 0.0921874 11.9544 0.256282 12.1185C0.420376 12.2825 0.642936 12.3747 0.875 12.3747H4.94375L9.079 15.6822C9.20766 15.785 9.3627 15.8493 9.5263 15.8679C9.6899 15.8865 9.85541 15.8585 10.0038 15.7872C10.1522 15.7159 10.2775 15.6042 10.3653 15.4649C10.4531 15.3256 10.4998 15.1644 10.5 14.9997V0.999731ZM5.796 5.18223L8.75 2.81973V13.1797L5.796 10.8172C5.64112 10.693 5.44857 10.6251 5.25 10.6247H1.75V5.37473H5.25C5.44857 5.37438 5.64112 5.30649 5.796 5.18223ZM15.7938 7.99973C15.7951 9.03409 15.592 10.0585 15.1962 11.0142C14.8004 11.9698 14.2196 12.8378 13.4873 13.5682L12.25 12.331C12.8196 11.7628 13.2713 11.0877 13.5791 10.3444C13.887 9.60107 14.0449 8.80425 14.0438 7.99973C14.0448 7.19522 13.8868 6.39844 13.579 5.65515C13.2712 4.91186 12.8195 4.23671 12.25 3.66848L13.4873 2.43123C14.2196 3.16169 14.8004 4.02968 15.1962 4.98531C15.592 5.94094 15.7951 6.96537 15.7938 7.99973Z" fill="white" fill-opacity="0.6"/>
</svg>
