<svg width="60" height="60" viewBox="0 0 60 60" fill="none" xmlns="http://www.w3.org/2000/svg">
<g clip-path="url(#clip0_926_848)">
<circle cx="30.1277" cy="30.1277" r="30.1277" fill="#FF7E7E"/>
<path d="M40.3436 18.5482C40.5956 18.6528 40.8246 18.806 41.0174 18.9992L40.3436 18.5482ZM40.3436 18.5482C40.0914 18.4436 39.821 18.3898 39.548 18.3898C39.275 18.3898 39.0046 18.4436 38.7524 18.5482C38.5003 18.6528 38.2714 18.806 38.0786 18.9991C38.0785 18.9992 38.0784 18.9993 38.0783 18.9994L29.9998 27.0614L21.9205 18.9821C21.7275 18.7891 21.4984 18.6361 21.2463 18.5316C20.9942 18.4272 20.7239 18.3734 20.451 18.3734C20.1781 18.3734 19.9079 18.4272 19.6558 18.5316C19.4036 18.6361 19.1746 18.7891 18.9816 18.9821C18.7886 19.1751 18.6355 19.4042 18.5311 19.6563C18.4267 19.9084 18.3729 20.1787 18.3729 20.4516C18.3729 20.7245 18.4267 20.9947 18.5311 21.2468C18.6355 21.4989 18.7886 21.728 18.9816 21.921L27.0606 30L18.9816 38.0791C18.7886 38.272 18.6355 38.5011 18.5311 38.7532C18.4267 39.0054 18.3729 39.2756 18.3729 39.5485C18.3729 39.8214 18.4267 40.0916 18.5311 40.3438C18.6355 40.5959 18.7886 40.825 18.9816 41.018C19.1746 41.2109 19.4036 41.364 19.6558 41.4684C19.9079 41.5729 20.1781 41.6266 20.451 41.6266C20.7239 41.6266 20.9942 41.5729 21.2463 41.4684C21.4984 41.364 21.7275 41.2109 21.9205 41.018L29.9995 32.9389L38.0785 41.018C38.2715 41.2109 38.5006 41.364 38.7527 41.4684C39.0049 41.5729 39.2751 41.6266 39.548 41.6266C39.8209 41.6266 40.0911 41.5729 40.3433 41.4684C40.5954 41.364 40.8245 41.2109 41.0174 41.018C41.2104 40.825 41.3635 40.5959 41.4679 40.3438C41.5724 40.0916 41.6261 39.8214 41.6261 39.5485C41.6261 39.2756 41.5724 39.0054 41.4679 38.7532C41.3635 38.5011 41.2104 38.272 41.0174 38.0791L32.9384 30L41.0174 21.921C41.813 21.1255 41.813 19.7949 41.0176 18.9993L40.3436 18.5482Z" fill="white" stroke="white" stroke-width="0.753191"/>
</g>
<defs>
<clipPath id="clip0_926_848">
<rect width="60" height="60" fill="white"/>
</clipPath>
</defs>
</svg>
